<?xml version="1.0" standalone="no"?>
<!DOCTYPE svg PUBLIC "-//W3C//DTD SVG 1.1//EN" "http://www.w3.org/Graphics/SVG/1.1/DTD/svg11.dtd">
<svg xmlns="http://www.w3.org/2000/svg">
<metadata>Copyright (C) 2014 by original authors @ fontello.com</metadata>
<defs>
<font id="fontello" horiz-adv-x="1000" >
<font-face font-family="fontello" font-weight="400" font-stretch="normal" units-per-em="1000" ascent="850" descent="-150" />
<missing-glyph horiz-adv-x="1000" />
<glyph glyph-name="plus" unicode="&#xe800;" d="m565 400q19 0 25-12t5-38q0-17-1-26t-9-16t-20-8h-210v-210q0-19-12-24t-38-6q-17 0-26 2t-16 8t-8 20v210h-210q-19 0-24 13t-6 37q0 17 2 26t8 17t20 7h210v210q0 19 13 25t37 5q17 0 26-1t17-9t7-20v-210h210z" horiz-adv-x="610" />
<glyph glyph-name="mastercard" unicode="&#xe849;" d="m47 655c-26 0-47-21-47-46v-535c0-26 21-47 47-47h907c25 0 46 21 46 47v535c0 25-21 46-46 46h-907z m281-76c57 0 109-19 151-53c-35-31-61-71-74-117h20c12 38 34 72 62 98c28-26 49-60 61-98h20c-13 46-39 86-73 117c41 33 94 53 151 53c132 0 240-107 240-239c0-132-108-240-240-240c-58 0-112 21-153 56c37 32 64 75 77 125h-20c-11-42-33-78-63-107c-30 29-53 65-64 107h-19c13-49 40-92 77-124c-42-34-95-54-153-54c-132 0-240 106-240 238s108 238 240 238z m300-168c-29 0-57-25-57-72c0-32 15-52 45-52c9 0 22 3 22 3l4 27s-12-6-20-6c-18 0-25 14-25 28c0 30 15 46 32 46c13 0 23-7 23-7l4 27s-15 6-28 6z m242-2l-25 0l-5-33s-10 13-24 13c-23 0-42-28-42-59c0-20 10-40 31-40c14 0 23 10 23 10l-1-8h24l19 117z m-717-1l-20-117h24l15 89l3-89h17l32 89l-14-89h25l20 117h-40l-24-72l-1 72h-37z m251-7c0-1-14-81-14-91c0-15 8-21 19-21c8 0 15 2 18 3c0 0 1 0 1 0l3 21c-2 0-4-1-7-1c-8 0-9 5-9 8l7 43h13l4 23h-13l3 15h-25z m291-12c-17 0-30-6-30-6l-4-21s11 4 27 4c9 0 16-1 16-8c0-5-1-7-1-7s-7 1-10 1c-22 0-44-9-44-37c0-22 15-27 24-27c17 0 24 11 25 11l-1-9h22l9 69c0 29-25 30-33 30z m-404 0c-17 0-30-6-30-6l-4-21s11 4 27 4c9 0 16-1 16-8c0-5-1-7-1-7s-7 1-10 1c-22 0-44-9-44-37c0-22 15-27 24-27c17 0 25 11 25 11l-1-9h22l9 69c0 29-25 30-33 30z m76 0c-18 0-36-7-36-32c0-29 30-26 30-38c0-8-8-8-15-8c-11 0-22 4-22 3l-3-21c1 0 7-3 28-3c5 0 37-2 37 31c0 31-30 25-30 37c0 6 5 8 14 8c3 0 17-1 17-1l3 22c0 0-9 2-23 2z m113 0c-25 0-44-27-44-58c0-35 24-43 44-43c18 0 26 4 26 4l4 24s-14-6-26-6c-27 0-22 20-22 20h50s4 16 4 22c0 17-8 37-36 37z m91-1c-11 0-20-15-20-15l3 14h-24l-16-97h26c8 41 9 75 27 69c3 16 6 22 9 28c0 0-2 1-5 1z m210 0c-11 0-19-15-19-15l2 14h-23l-16-97h26c7 41 8 75 26 69c3 16 6 22 9 28c0 0-1 1-5 1z m-301-21c14 0 12-16 12-17h-28c0 1 2 17 16 17z m339-2c10 0 14-6 14-20c0-13-6-31-20-31c-9 0-13 8-13 19c0 20 8 32 19 32z m-124-33c3 0 4 0 5 0c0 0 0 0 0 0c0-4-3-25-17-25c-8 0-10 6-10 10c0 7 4 15 22 15z m-404 0c4 0 4 0 5 0c1-5-2-25-17-25c-8 0-10 6-10 10c0 7 4 15 22 15z" horiz-adv-x="1000" />
<glyph glyph-name="uni2139" unicode="&#xe802;" d="m367 850q48 0 74-28t26-70q0-50-39-88t-95-38q-47 0-73 27t-26 73q0 45 36 85t97 39z m-207-1000q-29 0-45 13t-23 53t14 110l60 255q15 57 0 57q-13 0-54-18t-71-38l-26 44q91 77 190 125t150 48q26 0 39-20t11-55t-15-86l-69-268q-16-63 5-63q15 0 50 16t69 44l30-41q-84-86-175-131t-140-45z" horiz-adv-x="490" />
<glyph glyph-name="arrowleft" unicode="&#xe803;" d="m394 20l-379 330l379 330v-191h351v-278h-351v-191z" horiz-adv-x="760" />
<glyph glyph-name="arrowup" unicode="&#xe805;" d="m675 336h-191v-351h-278v351h-191l330 379z" horiz-adv-x="690" />
<glyph glyph-name="arrowright" unicode="&#xe806;" d="m366 680l379-330l-379-330v191h-351v278h351v191z" horiz-adv-x="760" />
<glyph glyph-name="arrowdown" unicode="&#xe807;" d="m675 364l-330-379l-330 379h191v351h278v-351h191z" horiz-adv-x="690" />
<glyph glyph-name="uni21C4" unicode="&#xe808;" d="m911 146h-670v-111l-223 168l223 167v-112h670v-112z m-893 335v112h670v111l223-166l-223-168v111h-670z" horiz-adv-x="928" />
<glyph glyph-name="house" unicode="&#xe809;" d="m903 335q16-16 11-27t-28-12h-83v-308q0-14-1-21t-9-14t-22-6h-204v310h-204v-310h-195q-19 0-28 6t-11 14t-2 21v308h-83q-23 0-28 12t11 27l401 401q16 16 37 16t37-16z" horiz-adv-x="930" />
<glyph glyph-name="uni25B4" unicode="&#xe80a;" d="m15 150l230 400l230-400h-460z" horiz-adv-x="490" />
<glyph glyph-name="uni25B8" unicode="&#xe80b;" d="m15 580l400-230l-400-230v460z" horiz-adv-x="430" />
<glyph glyph-name="uni25BE" unicode="&#xe80c;" d="m475 550l-230-400l-230 400h460z" horiz-adv-x="490" />
<glyph glyph-name="uni25C2" unicode="&#xe80d;" d="m415 580v-460l-400 230z" horiz-adv-x="430" />
<glyph glyph-name="uni2605" unicode="&#xe80e;" d="m455 790l119-336h321l-262-198l94-346l-272 208l-272-208l94 346l-262 198h321z" horiz-adv-x="910" />
<glyph glyph-name="uni2606" unicode="&#xe80f;" d="m895 454l-262-198l94-346l-272 208l-272-208l94 346l-262 198h321l119 336l119-336h321z m-440-238l151-125l-62 178l142 115l-176-5l-55 202l-55-202l-176 5l142-115l-62-178z" horiz-adv-x="910" />
<glyph glyph-name="uni2630" unicode="&#xe810;" d="m665 400q21 0 36-14t14-36t-14-35t-36-15h-600q-21 0-35 15t-15 35t15 36t35 14h600z m-600 100q-21 0-35 15t-15 35t15 36t35 14h600q21 0 36-14t14-36t-14-35t-36-15h-600z m600-300q21 0 36-14t14-36t-14-35t-36-15h-600q-21 0-35 15t-15 35t15 36t35 14h600z" horiz-adv-x="730" />
<glyph glyph-name="uni2661" unicode="&#xe811;" d="m795 641q70-65 70-156t-70-156l-355-330l-355 330q-70 65-70 156t70 156q62 58 150 58t149-58l56-52l56 52q62 58 150 58t149-58z m-52-261q42 38 42 105t-37 100q-42 39-102 39q-49 0-102-49l-104-91l-104 91q-53 49-102 49q-60 0-102-39q-37-33-37-100t42-105l303-286z" horiz-adv-x="880" />
<glyph glyph-name="heart" unicode="&#xe812;" d="m804 641q70-65 70-156t-70-156l-359-330l-359 330q-70 65-70 156t70 156q63 58 151 58t151-58l57-52l57 52q63 58 151 58t151-58z" horiz-adv-x="890" />
<glyph glyph-name="musicalnote" unicode="&#xe813;" d="m395 821q0-26 17-55t41-56l52-56q28-30 50-63t34-69t4-80t-39-93q-18-29-26-17q-4 5 0 17q6 16 7 43t-6 60t-21 63t-44 54t-69 29v-535q1-49-38-96t-103-70q-76-28-144-8t-89 75t20 114t115 86q85 31 159 3v654h80z" horiz-adv-x="610" />
<glyph glyph-name="uni268F" unicode="&#xe827;" d="m185 650q80 0 80-80v-90q0-80-80-80h-90q-80 0-80 80v90q0 80 80 80h90z m350 0q80 0 80-80v-90q0-80-80-80h-90q-80 0-80 80v90q0 80 80 80h90z m-350-350q80 0 80-80v-90q0-80-80-80h-90q-80 0-80 80v90q0 80 80 80h90z m350 0q80 0 80-80v-90q0-80-80-80h-90q-80 0-80 80v90q0 80 80 80h90z" horiz-adv-x="630" />
<glyph glyph-name="uni2691" unicode="&#xe826;" d="m889 605q14 5 22-1t0-19q-75-109-133-178t-98-97t-70-35t-54 7t-45 31t-48 33t-60 17t-82-20t-112-76l90-353h-101l-183 720l93 34q71 52 124 76t88 21t60-20t48-45l46-56q23-29 58-52t80-34t115 0t162 47z" horiz-adv-x="930" />
<glyph glyph-name="uni2699" unicode="&#xe825;" d="m774 350q0-76 81-122q-14-45-35-84q-72 19-135-44q-55-55-34-135q-39-21-84-35q-21 37-57 59t-75 22t-75-22t-57-59q-45 14-84 35q21 80-34 135t-135 34q-21 39-35 84q37 21 59 57t22 75q0 76-81 122q14 45 35 84q72-19 135 44q55 55 34 135q39 21 84 35q21-37 57-59t75-22t75 22t57 59q45-14 84-35q-21-80 34-135q63-63 135-44q21-39 35-84q-81-46-81-122z m-339-183q76 0 130 54t53 129t-53 130t-130 53t-129-53t-54-130t54-129t129-54z" horiz-adv-x="870" />
<glyph glyph-name="uni26A0" unicode="&#xe824;" d="m971-24q11-18-1-35t-30-16h-890q-18 0-30 16t-1 35l446 782q9 17 30 17t30-17z m-415 49v100h-122v-100h122z m0 175v300h-122v-300h122z" horiz-adv-x="990" />
<glyph glyph-name="uni2709" unicode="&#xe823;" d="m45 586q-23 12-28 33q1 19 25 21h846q33 0 23-25q-7-19-26-29l-375-202q-19-10-45-10t-45 10z m851-100q15 4 17 2t2-13v-367q0-16-17-32t-33-16h-800q-16 0-33 16t-17 32v367q0 10 2 13t17-2l386-202q19-10 45-10t45 10z" horiz-adv-x="930" />
<glyph glyph-name="uni270D" unicode="&#xe822;" d="m0 142v474q0 32 13 61t33 50t50 34t62 13h553q2 0 5 0t5-1l-98-98h-465q-24 0-41-17t-18-42v-474q0-24 18-41t41-18h553q24 0 41 18t17 41v229l99 98v-327q0-33-12-61t-34-50t-50-35t-61-12h-553q-33 0-62 12t-50 35t-33 50t-13 61z m324 9l56 169l335 335l113-114l-334-335z m121 156q3-4 9-4t8 4l263 262q10 10 1 19t-19-1l-262-262q-9-9 0-18z m327 405l47 48q15 15 35 15t33-15l24-23l23-23q13-15 14-34t-14-35l-49-47z" horiz-adv-x="947" />
<glyph glyph-name="uni270E" unicode="&#xe821;" d="m733 678q32-32 48-63t14-47l-1-16l-270-271l-271-271l-238-50l51 238l541 541q2 0 6 1t18-2t27-7t35-19t40-34z m-494-639l23 24q0 44-50 94q-22 22-45 35t-37 14l-12 1l-24-23l-17-81q24-13 46-35t35-46z" horiz-adv-x="810" />
<glyph glyph-name="uni2713" unicode="&#xe820;" d="m263 0q-34 0-55 28l-179 236q-17 23-13 52t27 45t52 14t45-27l118-155l295 474q15 25 43 31t53-9t32-43t-9-53l-349-560q-21-33-60-33z" horiz-adv-x="697" />
<glyph glyph-name="uni2715" unicode="&#xe81f;" d="m467 192q17-17 17-42t-17-42t-42-17t-42 17l-133 151l-133-151q-17-17-42-17t-42 17t-17 42t17 42l137 158l-137 158q-17 17-17 42t17 42t42 17t42-17l133-151l133 151q17 17 42 17t42-17t17-42t-17-42l-137-158z" horiz-adv-x="500" />
<glyph glyph-name="uni2716" unicode="&#xe81e;" d="m435 770q174 0 297-123t123-297t-123-297t-297-123t-297 123t-123 297t123 297t297 123z m86-420l153 153l-86 86l-153-153l-153 153l-86-86l153-153l-153-153l86-87l153 154l153-153l86 86z" horiz-adv-x="870" />
<glyph glyph-name="uni2753" unicode="&#xe81d;" d="m15 526q5 130 77 202t203 72q128 0 214-62t86-183q0-68-42-125q-13-19-88-78l-46-32q-29-22-42-43t-14-61q0-13-15-13h-129q-16 0-16 12q2 52 7 80t20 45q17 20 50 46t56 42l23 16q61 46 61 102q0 44-25 79q-25 36-93 36q-67 0-94-44q-28-45-28-91h-165z m277-422q45-2 74-31t27-75t-31-73t-76-25q-44 2-72 30t-28 74q1 46 32 74t74 26z" horiz-adv-x="610" />
<glyph glyph-name="uni2795" unicode="&#xe81c;" d="m435 770q174 0 297-123t123-297t-123-297t-297-123t-297 123t-123 297t123 297t297 123z m51-471h202l-1 102h-201v201h-102v-201h-202v-102h202v-202h102v202z" horiz-adv-x="870" />
<glyph glyph-name="uni2796" unicode="&#xe81b;" d="m435 770q174 0 297-123t123-297t-123-297t-297-123t-297 123t-123 297t123 297t297 123z m252-369h-505v-102h505v102z" horiz-adv-x="870" />
<glyph glyph-name="uni27A1" unicode="&#xe81a;" d="m756 100v161h-741v178h741v161l239-250z" horiz-adv-x="1010" />
<glyph glyph-name="uni27A6" unicode="&#xe819;" d="m554 251q-81 0-136-4t-119-18t-110-39t-92-71t-82-109q2 10 7 28t23 68t44 96t69 103t97 97t131 68t168 27v193l361-323l-361-334v218z" horiz-adv-x="930" />
<glyph glyph-name="uni27F3" unicode="&#xe818;" d="m0 379q0 82 31 154t85 125t125 85t154 31q69 0 134-24t118-69l80 80q17 17 29 12t11-29v-228q0-16-11-28q-11-10-27-10l-228-1q-24 0-29 12t12 29l79 79q-37 27-79 43t-89 16q-57 0-107-21t-88-60t-59-88t-22-108t22-107t59-88t88-59t107-22q51 0 98 18t84 50t61 76t30 95q1 6 8 13q7 5 15 4l78-11q9-1 14-7t3-15q-9-72-44-135t-87-108t-120-72t-140-27q-82 0-154 31t-125 85t-85 126t-31 153z" horiz-adv-x="786" />
<glyph glyph-name="uni2B05" unicode="&#xe817;" d="m254 100l-239 250l239 250v-161h741v-178h-741v-161z" horiz-adv-x="1010" />
<glyph glyph-name="uni2B06" unicode="&#xe816;" d="m515 601h-161v-741h-178v741h-161l250 239z" horiz-adv-x="530" />
<glyph glyph-name="uni2B07" unicode="&#xe815;" d="m515 99l-250-239l-250 239h161v741h178v-741h161z" horiz-adv-x="530" />
<glyph glyph-name="uniE4AD" unicode="&#xe814;" d="m394-30l-379 380l379 380v-191h351v-378h-351v-191z" horiz-adv-x="760" />
<glyph glyph-name="uniE4AE" unicode="&#xe852;" d="m366 730l379-380l-379-380v191h-351v378h351v191z" horiz-adv-x="760" />
<glyph glyph-name="uniE4AF" unicode="&#xe853;" d="m775 336h-191v-351h-378v351h-191l380 379z" horiz-adv-x="790" />
<glyph glyph-name="uniE4B0" unicode="&#xe858;" d="m775 364l-380-379l-380 379h191v351h378v-351h191z" horiz-adv-x="790" />
<glyph glyph-name="uniE700" unicode="&#xe85b;" d="m634 128q89-32 135-65t46-58v-105h-800v201q13 6 30 12t32 10t19 5q94 34 130 69t35 95q0 20-10 32t-24 31t-21 58q-2 12-9 18t-15 8t-14 17t-9 43q0 15 5 26t8 13l5 3q-9 50-13 88q-2 21 6 48t27 55t64 49t104 19t105-19t63-49t28-55t5-48l-13-88q18-8 18-42q-2-29-9-43t-14-17t-14-8t-10-18q-7-38-21-58t-24-31t-10-32q0-60 36-95t129-69z m231 272h150v-100h-150v-150h-100v150h-150v100h150v150h100v-150z" horiz-adv-x="1030" />
<glyph glyph-name="uniE704" unicode="&#xe85e;" d="m469 810q94 1 180-34t148-96t100-145t38-179t-34-179t-96-148t-145-101t-179-38t-179 34t-148 97t-100 145t-39 178t35 180t96 148t145 100t178 38z m66-676q1 31-18 50t-50 20q-29 0-48-19t-20-47q-1-30 18-48t50-20q29 0 48 18t20 46z m-60 402q67 0 67-66q0-14-11-31t-24-28q-3-1-16-10t-33-26t-31-28q-16-19-18-87h107q0 21 5 34q6 16 28 34l28 19q30 23 44 36t26 38t12 55q0 74-53 114t-136 40q-84 0-128-46t-48-131h111v5q0 28 16 53q15 25 54 25z" horiz-adv-x="950" />
<glyph glyph-name="uniE705" unicode="&#xe863;" d="m469 810q94 1 180-34t148-96t100-145t38-179t-34-179t-96-148t-145-101t-179-38t-179 34t-148 97t-100 145t-39 178t35 180t96 148t145 100t178 38z m51-153q-43 0-65-23t-23-51q-1-28 16-43t48-16q38 0 61 22t23 52q0 59-60 59z m-120-595q30 0 85 27t105 78l-18 24q-46-36-72-36q-12 0-3 38l42 159q26 96-21 96q-31 0-91-28t-115-75l16-26q17 11 43 22t33 11t0-34l-37-151q-27-105 33-105z" horiz-adv-x="950" />
<glyph glyph-name="uniE706" unicode="&#xe864;" d="m765 540q41 0 71-29t29-71v-290q0-41-29-70t-71-30h-690v140h650v210h-500v-110l-210 180l210 180v-110h540z" horiz-adv-x="880" />
<glyph glyph-name="uniE70A" unicode="&#xe868;" d="m515 630q92 0 177-25t142-62t99-78t62-71t20-44t-20-43t-62-72t-99-77t-142-62t-177-26t-177 26t-141 62t-99 77t-63 72t-20 43t20 44t63 71t99 78t141 62t177 25z m0-495q92 0 157 63t65 152t-65 152t-157 63t-157-63t-65-152t65-152t157-63z m0 215q6-6 18-5t28 5t31 7t24 2t10-9q0-44-32-76t-79-32t-78 32t-33 76t33 76t78 32q14 0 10-23t-12-47t2-38z" horiz-adv-x="1030" />
<glyph glyph-name="uniE70C" unicode="&#xe869;" d="m0 483v230q0 25 18 43t43 18h230q25 0 56-13t48-30l377-377q17-18 17-43t-17-44l-266-265q-18-18-43-18t-43 18l-377 377q-18 18-30 49t-13 55z m99 133q0-24 18-41t41-18t42 18t17 41t-17 42t-42 17t-41-17t-18-42z" horiz-adv-x="789" />
<glyph glyph-name="uniE711" unicode="&#xe86c;" d="m776 493q99 0 169-68t70-166t-70-165t-169-69h-191v190h105l-175 230l-175-230h105v-190h-249q-75 0-128 52t-53 125t53 125t128 52q7 0 21-2q-3 18-3 38q0 108 78 184t188 76q89 0 160-52t95-133q19 3 41 3z" horiz-adv-x="1030" />
<glyph glyph-name="uniE712" unicode="&#xe86d;" d="m915 10q-36 64-81 109t-92 71t-110 39t-119 18t-137 4v-218l-361 334l361 323v-193q70 0 134-16t111-45t90-65t71-77t53-81t38-76t25-65t13-46z" horiz-adv-x="930" />
<glyph glyph-name="uniE715" unicode="&#xe870;" d="m765 60v55l100 82v-187q0-21-14-36t-36-14h-750q-21 0-35 14t-15 36v550q0 21 15 36t35 14h288q-33-24-60-49t-37-38l-11-13h-130v-450h650z m-82 347q-114 0-179-17t-115-63t-109-142q0 8 1 23t9 56t22 79t44 83t71 79t107 56t149 22v157l332-250l-332-260v177z" horiz-adv-x="1030" />
<glyph glyph-name="uniE716" unicode="&#xe871;" d="m80 525q-13 0-18 8t-2 16t10 11q182 65 200 65h45v150h380v-150h45q18 0 200-65q7-3 10-11t-2-16t-18-8h-850z m860-55q21 0 38-19t17-41v-175q0-21-17-40t-38-20h-99l44-250h-760l44 250h-99q-21 0-38 20t-17 40v175q0 21 17 41t38 19h870z m-715-445h560l-70 325h-420z" horiz-adv-x="1010" />
<glyph glyph-name="uniE717" unicode="&#xe874;" d="m275 190h222l128-140h-390q-41 0-70 30t-30 70v300h-120l190 200l190-200h-120v-260z m620 60h120l-190-200l-190 200h120v260h-222l-128 140h390q41 0 71-29t29-71v-300z" horiz-adv-x="1030" />
<glyph glyph-name="uniE718" unicode="&#xe876;" d="m715 700q41 0 71-29t29-71v-350q0-41-29-70t-71-30h-200v-150l-200 150h-200q-41 0-70 30t-30 70v350q0 41 30 71t70 29h600z" horiz-adv-x="830" />
<glyph glyph-name="uniE722" unicode="&#xe875;" d="m915 750q41 0 71-29t29-71v-600q0-41-29-71t-71-29h-800q-41 0-70 29t-30 71v600q0 41 30 71t70 29h800z m0-700v600h-800v-600h800z m-450 195v-90h-250v90h250z m0 150v-90h-250v90h250z m0 150v-90h-250v90h250z m345-320q2 0 4-17t1-36v-17h-250q0 70 5 70q10 2 24 7t38 22t23 37q0 16-13 35t-28 45t-14 64q0 55 21 83t69 27t70-27t20-83q0-37-14-64t-27-45t-14-35q0-20 22-36t42-23z" horiz-adv-x="1030" />
<glyph glyph-name="uniE724" unicode="&#xe879;" d="m265 750q103 0 177-73t73-177q0-67-25-148t-63-149t-74-127t-63-92l-25-34l-27 35q-17 22-60 89t-76 130t-60 146t-27 150q0 104 74 177t176 73z m0-388q56 0 96 40t39 95t-39 96t-96 39t-95-39t-40-96t40-95t95-40z" horiz-adv-x="530" />
<glyph glyph-name="uniE729" unicode="&#xe87b;" d="m0 597q0 8 1 17t0 18q12 6 35 10t49 8t55 5t52 3q-3 17-1 34t7 34q1 5 6 13t20 15t42 14t75 6t75-6t43-14t19-16l6-13q7-18 8-34t-1-33q23-1 52-3t55-5t49-8t34-10q1-10 1-18v-17v-17q0-8-1-18q-10-6-32-10t-48-8t-53-5t-51-3t-39-1t-17-1l-100-1h-14h-29q-20 0-57 1q-2 0-17 1t-39 1t-50 3t-54 5t-47 8t-33 10q0 10 0 18t-1 17z m71-103q43-6 89-8t79-4q9-1 24-1h78h77q15 0 24 1q35 1 81 4t89 8q-6-80-9-163t-7-163q-1-20-1-44t-2-48t-7-42t-15-31q-13-11-44-15t-62-4h-248q-31 0-62 4t-43 15q-11 11-15 31t-7 42t-2 48t-2 44q-4 80-7 163t-8 163z m84-107q1-15 1-29t1-23q0-12 1-20q2-36 4-72t3-70q1-9 1-18v-21v-13q0-6 1-14t1-21q1-8 10-14t15-7q5-1 10-1t9-1h11q5 0 5 20v301q0 9-5 15t-15 5l-34 2q-9 0-14-5t-5-14z m114 289q0-7 2-16q9 1 21 1h49l71-1q1 9 2 16t-1 11q-12 4-31 6t-41 1t-40-1t-32-6q-1-5 0-11z m38-593q0-8 6-14t13-6h30q8 0 14 6t6 14v300q0 9-11 14t-16 5h-15q-3 0-15-5t-12-14v-300z m148 0q0-20 4-20h12q3 1 14 2t15 0q5 1 9 7t5 14q0 12 1 21t0 14q0 7 1 13v21q0 9 1 18q2 34 3 70t3 71q0 9 1 21q1 9 2 23t1 29q0 9-5 14t-14 5l-34-2q-9 0-14-5t-5-15v-301z" horiz-adv-x="682" />
<glyph glyph-name="uniE744" unicode="&#xe87e;" d="m539 728l276 22l-21-280l-78 79l-142-143l-99 100l142 144z m-283-434l99-100l-142-144l78-79l-276-21l21 279l78-78z" horiz-adv-x="830" />
<glyph glyph-name="uniE746" unicode="&#xe87f;" d="m835 657l-145-147l80-81l-283-22l22 287l79-81l145 147z m-675-467l-80 81l283 22l-22-287l-79 81l-145-147l-102 103z" horiz-adv-x="850" />
<glyph glyph-name="uniE75C" unicode="&#xe854;" d="m579 422l-235-225q-17-17-39-17t-39 17q-215 204-235 225q-15 16-15 40t15 41q37 37 79 0l195-188l195 188q42 37 79 0q16-17 16-41t-16-40z" horiz-adv-x="610" />
<glyph glyph-name="uniE75D" unicode="&#xe857;" d="m257 624q16 15 40 16t41-16q37-37 0-79l-188-195l188-195q37-42 0-79q-17-16-41-15t-40 15l-225 235q-17 17-17 39t17 39q204 215 225 235z" horiz-adv-x="370" />
<glyph glyph-name="uniE75E" unicode="&#xe859;" d="m113 624l225-235q17-17 17-39t-17-39q-204-215-225-235q-16-15-40-15t-41 15q-37 37 0 79l188 195l-188 195q-37 42 0 79q17 16 41 16t40-16z" horiz-adv-x="370" />
<glyph glyph-name="uniE75F" unicode="&#xe85c;" d="m579 278q15-16 16-40t-16-41q-37-37-79 0l-195 188l-195-188q-42-37-79 0q-16 17-15 41t15 40l235 225q17 17 39 17t39-17q215-204 235-225z" horiz-adv-x="610" />
<glyph glyph-name="uniE760" unicode="&#xe85f;" d="m3 153l74 216q4 14 19 22q16 6 29 2l217-74q22-7 23-20t-21-23l-100-50q25-38 61-66t79-43q54-19 109-14t102 28t85 64t56 94q2 9 9 12t15 1l75-25q18-8 12-25q-26-78-78-136t-121-91t-146-40t-156 20q-66 22-119 66t-89 103l-102-50q-21-11-31-2t-2 31z m97 352q26 77 79 136t121 92t145 40t156-20q66-24 119-67t89-103l103 51q21 10 31 1t1-31l-73-216q-5-14-19-22q-16-6-30-2l-217 74q-22 7-22 20t20 23l100 50q-25 37-61 66t-80 43q-54 19-108 14t-102-28t-84-64t-56-95q-3-8-10-11t-15-1l-74 26q-9 2-12 10t-1 14z" horiz-adv-x="947" />
<glyph glyph-name="uniE7A2" unicode="&#xe862;" d="m205 324q0 107 66 194q67 93 164 123l77-348l297-169q-41-56-118-102q-71-36-153-36q-138 0-235 98t-98 240z m286 461q47 20 113 20q61 0 128-26l-158-373z m134-471l163 378q108-46 170-138q66-97 66-210q0-123-72-220z" horiz-adv-x="1228" />
<glyph glyph-name="hyphen" unicode="&#xe801;" d="m565 400q19 0 25-12t5-38q0-17-1-26t-9-16t-20-8h-520q-19 0-24 13t-6 37q0 17 2 26t8 17t20 7h520z" horiz-adv-x="610" />
<glyph glyph-name="uniE801" unicode="&#xe867;" d="m0 83q0 20 15 35l261 262l-261 257q-15 15-15 35t15 34l51 52q15 15 35 15t35-15l259-259l259 259q14 15 34 15t35-15l52-52q14-14 14-34t-14-35l-261-262l261-257q14-15 14-34t-14-35l-52-52q-15-15-35-15t-34 15l-259 260l-260-260q-15-15-34-15t-35 15l-51 51q-15 15-15 35z" horiz-adv-x="789" />
<glyph glyph-name="uniE802" unicode="&#xe86a;" d="m128 355q0 10 15 20l471 379l471-379q16-10 16-20t-26-11h-51h-51v-51v-256v-51q0-51-51-51h-154q-51 0-51 51v205v51h-52h-102h-51v-51v-205q0-51-51-51h-154q-51 0-51 51v51v256v51h-51h-51q-26 0-26 11z" horiz-adv-x="1228" />
<glyph glyph-name="u1F464" unicode="&#xe86b;" d="m751 128q94-34 149-67t55-56v-105h-940v105q0 23 55 56t149 67q93 34 128 69t35 95q0 20-10 32t-24 31t-21 58q-2 12-9 18t-14 8t-14 17t-9 43q0 15 5 26t8 13l5 3q-9 50-13 88q-2 21 6 48t28 55t62 49t103 19t103-19t63-49t27-55t6-48l-13-88q18-8 18-42q-2-29-8-43t-14-17t-15-8t-9-18q-7-38-21-58t-24-31t-10-32q0-60 35-95t128-69z" horiz-adv-x="970" />
<glyph glyph-name="u1F465" unicode="&#xe86e;" d="m1015-75h-225v144q0 52-30 79t-154 85q41 29 41 81q0 14-13 32t-19 49q-1 8-5 12t-9 5t-8 11t-6 29q0 10 3 17t5 9l3 2q-6 33-8 59q-1 14 4 32t16 37t38 32t62 13t62-13t38-32t16-37t3-32l-7-59q10-6 10-28q-1-19-5-29t-9-11t-8-5t-6-12q-5-32-18-49t-14-32q0-40 21-63t77-47q61-25 90-41t41-36q5-8 9-58t4-97z m-489 252q89-36 137-64t47-56v-132h-695v176q0 20 16 36t28 23t35 15q3 1 5 2q75 30 103 61t28 85q0 19-18 42t-26 66q-2 10-7 15t-12 7t-11 15t-7 39q0 13 4 23t7 12l4 2q-8 45-11 79q-2 19 5 42t22 49t50 44t83 17t83-17t50-44t22-49t4-42l-10-79q14-7 14-37q-2-26-7-39t-11-15t-11-7t-8-15q-7-43-25-66t-18-42q0-54 28-85t102-61z" horiz-adv-x="1030" />
<glyph glyph-name="u1F4BB" unicode="&#xe86f;" d="m915 790q41 0 71-29t29-71v-550q0-41-29-76t-69-44l-219-43l68-28q81-39-1-39h-500q-88 0 8 43l59 24l-219 43q-40 8-69 44t-29 76v550q0 41 30 71t70 29h800z m0-645v555h-800v-555h800z" horiz-adv-x="1030" />
<glyph glyph-name="u1F4C1" unicode="&#xe872;" d="m968 500q31 0 40-13t6-37l-41-450q-2-25-12-38t-43-12h-806q-31 0-42 13t-13 37l-41 450q-1 16 1 26t12 17t33 7h906z m-33 110l10-40h-846l14 130q2 20 19 35t37 15h163q21 0 46-10t40-25l30-30q15-14 40-24t46-11h341q21 0 38-11t22-29z" horiz-adv-x="1030" />
<glyph glyph-name="u1F4C4" unicode="&#xe873;" d="m0 43v672q0 24 18 42t41 17h230v-283q0-25 18-42t41-17h284v-389q0-24-17-41t-42-18h-514q-24 0-41 18t-18 41z m348 448v280h4l276-277v-3h-280z" horiz-adv-x="631" />
<glyph glyph-name="u1F4C5" unicode="&#xe877;" d="m815 700q41 0 71-29t29-71v-600q0-41-29-71t-71-29h-700q-41 0-70 29t-30 71v600q0 41 30 71t70 29h45v-100h160v100h290v-100h160v100h45z m0-700v400h-700v-400h700z m-540 800v-170h-70v170h70z m450 0v-170h-70v170h70z" horiz-adv-x="930" />
<glyph glyph-name="u1F4C8" unicode="&#xe878;" d="m205-14v666h102v-374l251 358l220-276l113 77l61-82l-194-134l-195 246l-256-363v-16h666v-102h-768z" horiz-adv-x="1228" />
<glyph glyph-name="u1F4CE" unicode="&#xe87a;" d="m259-142q-58 0-110 26t-84 72t-46 101t7 116t72 114l222 222l273 274q37 37 84 51t92 2q45-12 79-46t46-79q12-46-2-92t-51-84l-474-473q-24-24-52-37t-60-10t-56 27q-19 19-25 46t4 60t40 62l333 332q11 10 25 10t24-10t10-24t-10-25l-332-333q-21-21-25-40t5-28q9-9 23-7q25 3 47 26l473 474q50 52 35 108q-8 27-28 47t-47 28q-57 16-108-35l-274-273l-222-222q-44-44-56-94t1-91t45-73t73-46t91-1t94 57l495 496q10 10 25 10t25-10t10-25t-10-25l-496-495q-83-83-185-83z" horiz-adv-x="965" />
<glyph glyph-name="u1F4E4" unicode="&#xe87c;" d="m515 775l270-254h-150v-246h-240v246h-150z m467-577q18-10 27-31t4-42l-28-153q-4-19-22-33t-40-14h-816q-21 0-39 14t-23 33l-28 153q-5 20 4 42t27 31l159 107h98l-170-130h178q9 0 12-7l40-112h300l40 112q3 7 12 7h178l-170 130h98z" horiz-adv-x="1030" />
<glyph glyph-name="u1F4E5" unicode="&#xe87d;" d="m785 529l-270-254l-270 254h150v246h240v-246h150z m197-331q18-10 27-31t4-42l-28-153q-4-19-22-33t-40-14h-816q-21 0-39 14t-23 33l-28 153q-5 20 4 42t27 31l159 107h98l-170-131h178q9 0 12-6l40-112h300l40 112q3 6 12 6h178l-170 131h98z" horiz-adv-x="1030" />
<glyph glyph-name="u1F4F1" unicode="&#xe804;" d="m495 840q41 0 71-29t29-71v-780q0-41-29-71t-71-29h-380q-41 0-70 29t-30 71v780q0 41 30 71t70 29h380z m-190-940q29 0 50 14t20 36t-20 35t-50 15t-49-15t-21-35t21-36t49-14z m210 150v660h-420v-660h420z" horiz-adv-x="610" />
<glyph glyph-name="u1F4F7" unicode="&#xe855;" d="m515 450q62 0 106-44t44-106t-44-106t-106-44t-106 44t-44 106t44 106t106 44z m400 150q41 0 71-29t29-71v-450q0-41-29-71t-71-29h-800q-41 0-70 29t-30 71v450q0 41 30 71t70 29h120q12 0 24 8t15 20l32 93q4 12 15 21t24 8h340q12 0 24-8t15-21l32-93q4-12 15-20t24-8h120z m-400-550q103 0 177 73t73 177t-73 177t-177 73t-176-73t-74-177t74-177t176-73z m365 380q14 0 25 11t10 24t-10 25t-25 10t-24-10t-11-25t11-24t24-11z" horiz-adv-x="1030" />
<glyph glyph-name="u1F512" unicode="&#xe856;" d="m655 475q21 0 41-19t19-41v-390q0-21-14-40t-34-25l-59-20q-49-15-98-15h-290q-49 0-98 15l-59 20q-20 6-34 25t-14 40v390q0 22 15 41t35 19h100v70q0 110 51 170t149 60t149-60t51-170v-70h90z m-390 90v-90h200v90q0 53-27 82t-73 28t-73-28t-27-82z" horiz-adv-x="730" />
<glyph glyph-name="u1F513" unicode="&#xe85a;" d="m655 450q21 0 41-19t19-41v-390q0-21-14-40t-34-25l-59-20q-49-15-98-15h-290q-49 0-98 15l-59 20q-20 6-34 25t-14 40v390q0 22 15 41t35 19h400v140q0 53-27 82t-73 28t-73-28t-27-82v-40h-100v20q0 110 51 170t149 60t149-60t51-170v-120h90z" horiz-adv-x="730" />
<glyph glyph-name="u1F514" unicode="&#xe85d;" d="m648 425q16-34 41-52t45-22t42-22t35-55q22-62-74-161t-252-158q-104-39-205-46t-167 15t-79 61q-13 36-7 65t19 46t20 47t-2 66q-23 89-33 142t-15 109t8 94t36 74t68 73q17 14 24 29t6 24t6 19t23 16q26 10 48-9t53-20q56 1 99-11t75-33t64-67t58-94t64-130z m-187-404q55 20 105 49t82 57t56 53t33 44t7 25q-7 20-47 31t-125 1t-187-48q-63-23-115-51t-85-54t-53-49t-28-41t-3-28q2-6 21-13t54-12t76-5t98 10t111 31z m-24 188q15-40-15-82t-89-65q-45-16-86-12t-66 26q81 68 218 120q17 7 38 13z" horiz-adv-x="830" />
<glyph glyph-name="u1F517" unicode="&#xe860;" d="m308 114q14 14 35 14t35-14t14-35t-14-35l-41-40q-55-55-133-55q-79 0-134 55q-55 53-55 133t55 133l149 147q70 69 144 78t127-44q14-14 15-35t-14-35t-35-14t-35 14q-49 49-132-34l-149-148q-26-26-26-62q0-37 26-63t64-26t64 26z m452 574q55-55 55-132q0-78-55-133l-159-158q-73-73-150-73q-62 0-111 49q-14 14-14 35t13 35t35 14t35-14q9-9 16-13t23-7t36 8t47 36l159 158q26 26 26 63q0 36-26 62q-27 26-57 31t-61-21l-50-50q-14-14-35-14t-35 14t-14 35t14 35l51 50q54 53 127 51t130-61z" horiz-adv-x="830" />
<glyph glyph-name="u1F554" unicode="&#xe861;" d="m475 810q125 0 231-61t168-168t61-231t-61-231t-168-168t-231-61t-231 61t-167 168t-62 231t62 231t167 168t231 61z m0-820q149 0 255 106t105 254t-105 255t-255 105t-254-105t-106-255t106-254t254-106z m35 620v-246l150-149l-50-50l-170 170v275h70z" horiz-adv-x="950" />
<glyph glyph-name="u1F6AB" unicode="&#xe866;" d="m475 810q125 0 231-61t168-168t61-231t-61-231t-168-168t-231-61t-231 61t-167 168t-62 231t62 231t167 168t231 61z m248-213h-1h1z m-598-247q0-125 79-222l492 493q-97 79-221 79q-145 0-247-102t-103-248z m102-247l1-1z m248-103q145 0 248 103t102 247q0 124-79 221l-492-492q97-79 221-79z" horiz-adv-x="950" />
<glyph glyph-name="attention-2" unicode="&#xe880;" d="m957-24q10-16 0-34q-10-16-30-16l-892 0q-18 0-28 16q-13 18-2 34l446 782q8 18 30 18t30-18z m-420 50l0 100l-110 0l0-100l110 0z m0 174l0 300l-110 0l0-300l110 0z" horiz-adv-x="962" />
<glyph glyph-name="exchange-1" unicode="&#xe881;" d="m911 127l-670 0l0-111l-223 168l223 167l0-112l670 0l0-112z m-893 335l0 112l670 0l0 111l223-166l-223-168l0 111l-670 0z" horiz-adv-x="928" />
<glyph glyph-name="facebook-2" unicode="&#xe833;" d="m124-150v469h-124v169h124v145c0 113 73 217 242 217c69 0 119-7 119-7l-4-157s-51 0-108 0c-60 0-70-28-70-74v-124h183l-8-169h-175v-469h-179" horiz-adv-x="486" />
<glyph glyph-name="facebook-rect" unicode="&#xe832;" d="m183 850c-102 0-183-81-183-183l0-634c0-102 81-183 183-183l344 0l0 391l-104 0l0 141l104 0l0 120c0 94 61 181 201 181c57 0 100-5 100-5l-4-132s-43 1-90 1c-50 0-58-24-58-62l0-103l152 0l-6-141l-146 0l0-391l141 0c102 0 183 81 183 183l0 634c0 102-81 183-183 183l-634 0z" horiz-adv-x="1000" />
<glyph glyph-name="twitter-2" unicode="&#xe831;" d="m749-25c0-34-13-64-37-88c-25-25-54-37-89-37l-248 0c-103 0-192 36-265 110c-73 73-110 161-110 264l0 501c0 35 12 65 37 89c24 24 54 36 89 36c34 0 64-12 88-37c25-24 37-54 37-88l0-181l353 0c32 0 60-12 83-35c22-22 34-49 34-81c0-32-12-59-34-82c-23-23-51-34-82-34l-354 0l0-88c0-34 12-64 36-88c24-24 54-36 88-36l248 0c35 0 64-12 89-37c24-24 37-54 37-88" horiz-adv-x="749" />
<glyph glyph-name="twitter-bird" unicode="&#xe830;" d="m1231 732q-51-77-126-131q1-14 1-32q0-102-30-203q-29-102-90-195q-61-92-145-164q-84-72-201-114q-118-43-253-43q-210 0-387 113q31-3 60-3q176 0 314 108q-82 2-147 51q-64 49-89 125q24-5 48-5q34 0 66 9q-87 17-145 87q-57 69-57 160l0 4q53-30 114-32q-52 34-82 90q-30 55-30 120q0 68 34 127q95-117 230-186q135-70 290-78q-6 28-6 58q0 104 74 178q74 74 178 74q110 0 185-80q85 17 160 62q-29-91-111-140q76 9 145 39z" horiz-adv-x="1231" />
<glyph glyph-name="vimeo-1" unicode="&#xe82f;" d="m1158 619q-8-169-236-463q-236-306-400-306q-101 0-171 187l-94 343q-52 187-112 187q-13 0-90-55l-55 70q86 76 169 151q114 99 171 104q135 13 166-185q34-212 47-264q39-177 86-177q36 0 109 114q73 115 78 174q10 99-78 99q-42 0-86-18q86 278 327 270q180-5 169-231z" horiz-adv-x="1158.8" />
<glyph glyph-name="vimeo-rect" unicode="&#xe82e;" d="m193 850c-107 0-193-86-193-193l0-614c0-107 86-193 193-193l614 0c107 0 193 86 193 193l0 614c0 107-86 193-193 193l-614 0z m517-197c3 0 6 0 9 0c74-2 108-50 104-143c-3-69-52-164-146-285c-97-126-179-189-247-189c-41 0-77 38-106 115l-57 212c-22 77-45 115-69 115c-6 0-24-11-56-34l-34 44c35 31 70 62 104 93c47 40 83 62 106 64c56 5 90-33 103-114c14-88 23-142 29-163c16-73 33-109 52-109c15 0 38 23 68 70c30 47 46 83 48 107c4 41-12 61-48 61c-17 0-35-3-53-11c34 111 98 167 193 167z" horiz-adv-x="1000" />
<glyph glyph-name="tumblr-1" unicode="&#xe82d;" d="m346 850v-253h237v-157h-237v-256c0-58 3-95 9-112c6-16 17-29 34-39c22-13 48-20 76-20c51 0 101 16 151 49v-157c-43-21-81-35-116-43c-35-8-72-12-112-12c-46 0-86 6-122 17c-35 12-65 28-89 50c-25 21-42 44-52 68c-10 24-14 59-14 105v350h-111v142c39 13 73 31 101 55c28 24 50 52 67 86c17 33 29 75 35 127h143" horiz-adv-x="616.1" />
<glyph glyph-name="tumblr-rect" unicode="&#xe82c;" d="m193 850c-107 0-193-86-193-193l0-614c0-107 86-193 193-193l614 0c107 0 193 86 193 193l0 614c0 107-86 193-193 193l-614 0z m242-141l99 0l0-177l166 0l0-109l-166 0l0-179c0-40 2-66 7-78c4-11 12-20 23-27c16-9 33-14 53-14c36 0 71 12 106 35l0-110c-30-14-57-24-81-30c-24-6-51-8-79-8c-31 0-60 4-84 12c-25 8-45 19-63 34c-17 15-29 31-36 48c-6 16-10 41-10 73l0 244l-77 0l0 99c28 9 51 21 71 38c19 17 35 36 47 60c11 23 20 53 24 89z" horiz-adv-x="1000" />
<glyph glyph-name="googleplus-rect" unicode="&#xe82b;" d="m92 850c-51 0-92-26-92-92l0-79c4 3 8 7 12 11c83 68 173 80 250 81l307 0l-82-66l-89 0c36-31 89-86 89-184c0-108-57-159-118-207c-19-19-41-40-41-72c0-32 22-49 38-63l52-40c64-54 148-117 148-217c0-27-3-52-12-72l354 0c51 0 92 28 92 79l0 580l-184 0l0-185l-79 0l0 185l-184 0l0 78l184 0l0 184l79 0l0-184l184 0l0 171c0 66-41 92-92 92l-816 0z m908-263l0-78l1 0l0 78l-1 0z m-813 135c-38 0-78-19-102-48c-24-31-28-70-28-108c0-98 51-242 176-242c36 0 74 9 98 36c27 31 37 72 37 93c0 106-60 269-181 269z m-187-398l0-259c66 53 180 44 235 47c-20 27-43 54-43 99c0 25 7 40 14 57c-16-1-32-3-46-3c-66 0-120 26-160 59z m251-252c-13 0-91-3-152-24c-21-8-69-26-99-66l0-53c0-51 41-79 92-79l377 0c2 7 6 12 6 26c-1 75-80 115-190 194c-12 2-19 2-34 2z" horiz-adv-x="1001" />
<glyph glyph-name="github-text" unicode="&#xe82a;" d="m527 850c-21 0-39-8-54-24c-15-16-22-35-22-58c0-22 7-41 22-57c15-16 33-24 54-24c20 0 38 8 53 24c15 16 22 35 22 57c0 23-7 42-22 58c-15 16-33 24-53 24z m164-156c2-13 3-29 3-49l0-43l-53 0l0-106c15 2 27 3 37 3l16-1l0-2l-1 0l0-196c0-61 8-106 23-134c20-38 57-57 110-57c38 0 71 7 98 22l0 109c-18-12-39-19-61-19c-33 0-49 25-49 74l0 203l47 0c9 0 19 0 28-1c10-1 17-1 21-1l0 106l-96 0l0 45c0 17 2 33 4 47l-127 0l0 0z m-501-87c-49 0-92-16-128-49c-37-35-55-79-55-131c0-35 10-68 30-98c18-29 39-47 63-55l0-2c-24-10-35-36-35-77c0-31 12-54 37-70l0-2c-68-23-102-64-102-126c0-53 23-92 68-117c36-19 81-29 136-29c135 0 203 56 203 169c0 71-52 114-157 130c-24 4-42 13-54 27c-10 9-14 19-14 28c0 27 14 43 43 47c45 7 81 27 109 62c28 34 42 75 42 122c0 14-3 30-9 47c19 4 34 8 44 12l0 112c-46-17-86-26-121-26c-31 18-64 26-100 26l0 0z m275-5c1-13 2-37 2-71l0-340c0-35-1-60-2-74l123 0c-1 16-2 43-2 80l0 336c0 32 1 55 2 69l-123 0z m-270-95c22 0 39-9 51-25c10-16 15-34 15-55c0-51-22-77-66-77c-46 0-69 26-69 76c0 54 23 81 69 81z m7-445c62 0 92-19 92-56c0-39-28-59-84-59c-64 0-96 19-96 57c0 39 29 58 88 58l0 0z" horiz-adv-x="924" />
<glyph glyph-name="github-2" unicode="&#xe829;" d="m1079 851c-33 1-110-11-239-97c-70 18-145 26-219 26c-83 0-166-10-243-31c-185 126-267 100-267 100c-53-133-20-232-10-256c-63-68-101-154-101-260c0-80 9-151 31-214c2-4 1-3 3-8c5-12 11-25 17-37c2-4 4-8 4-8c62-116 185-191 404-215l331 0c233 23 345 98 397 216l3 7c5 12 9 24 21 66c12 41 17 113 17 193c0 115-43 207-113 276c12 40 28 128-17 240c0 0-6 2-19 2z m-261-421c54 0 100-9 135-46l0 0c43-45 69-100 69-159c0-277-178-285-398-285c-219 0-397 39-397 285c0 58 25 113 68 158c71 76 192 36 329 36c71 0 137 11 194 11z m-408-82c-46 0-83-61-83-137c0-77 37-138 83-138c45 0 82 61 82 138c0 76-37 137-82 137z m443 0c-45 0-82-61-82-137c0-77 37-138 82-138c46 0 83 61 83 138c0 76-37 137-83 137z" horiz-adv-x="1228" />
<glyph glyph-name="skype-2" unicode="&#xe828;" d="m958 278c4 23 6 47 6 72c0 256-208 464-464 464c-25 0-49-2-72-6c-43 27-94 42-148 42c-154 0-280-125-280-280c0-54 15-105 42-148c-4-23-6-47-6-72c0-256 208-464 464-464c25 0 49 2 72 6c43-27 94-42 148-42c155 0 280 125 280 280c0 54-15 105-42 148z m-238-139c-19-28-48-50-86-66c-38-16-82-24-134-24c-61 0-113 11-153 33c-29 15-52 36-70 62c-18 27-27 52-27 77c0 15 6 28 17 38c11 11 25 16 42 16c14 0 25-4 35-12c10-9 18-21 24-36c8-19 17-34 26-46c9-12 21-22 38-30c16-8 38-12 65-12c37 0 67 8 90 24c23 16 34 35 34 59c0 19-6 34-18 45c-13 12-29 21-48 27c-20 6-47 13-80 20c-45 10-83 21-113 34c-31 14-55 31-73 54c-18 23-27 52-27 85c0 33 10 61 29 86c19 25 46 45 82 58c35 13 77 20 126 20c38 0 71-4 99-13c29-9 52-21 71-36c18-14 32-30 41-46c8-17 13-33 13-48c0-15-6-28-17-39c-11-12-25-18-41-18c-15 0-27 4-35 11c-7 7-16 18-24 33c-12 22-25 39-41 51c-15 12-40 18-75 18c-32 0-58-7-78-20c-19-13-29-28-29-46c0-11 4-21 10-29c7-8 16-15 27-21c12-6 24-10 36-14c12-3 32-8 60-15c36-7 67-16 96-25c29-9 53-21 73-34c20-13 36-30 48-51c11-20 17-45 17-74c0-36-10-68-30-96z" horiz-adv-x="1000" />
<glyph glyph-name="icq" unicode="&#xe84a;" d="m355 823c-31 7-57 4-84-10c-29-18-46-47-53-86c-7-41 0-80 21-120l10-14l-34 11c-42 10-82 4-121-17c-41-21-66-50-83-91c-16-40-15-78 5-113c9-16 21-28 33-37c17-17 38-27 63-31l10-3l-21-18c-20-17-31-38-38-59c-7-26-4-51 10-75c7-11 14-21 25-28c11-10 25-17 42-18c31-7 64-7 99 4l-25-42l-7-19c-15-45-10-84 11-125c10-16 21-30 32-43c17-15 38-25 64-32c42-11 84-10 125 11c40 21 65 55 78 98l1 8c27-30 52-49 80-56c29-9 57-7 82 10c24 14 41 38 50 67c7 31 7 62 0 97c14-9 28-16 45-21c45-14 84-12 124 9c38 21 63 55 76 99c11 42 8 83-13 122l-7 11c-11 17-22 34-39 46c-14 9-31 16-47 24c44 21 75 50 89 88c10 31 7 57-7 82l0 3c-17 28-40 46-75 56c-21 5-45 5-66 3l-47-10l16 36c14 45 10 88-14 129l-4 7c-22 36-53 57-95 68c-44 11-84 7-124-14c-39-21-68-54-80-96l0-3l-2-10l-5 10l-14 26c-23 35-51 56-86 66z m359-85c7-14 11-31 11-49l-4-31c-5-16-13-30-21-42l-127-156c-13 10-27 17-41 24l-14 160l-1 56l1 14c7 28 27 50 52 64c26 14 54 17 81 7c29-7 50-23 63-47z m-437-28c1 25 11 42 28 52c9 7 21 7 33 2c25-8 46-26 63-61c7-14 14-28 17-45l28-167l-21-7l-125 137l-7 14c-12 26-19 50-16 75z m-76-165l38-15l124-91c-11-14-18-28-22-42l-204-25l-14 2c-25 5-42 16-53 37c-11 21-11 42-3 64c10 26 28 47 55 59c25 14 51 18 79 11z m134-230l10-28l4-10c-21-18-37-35-54-51l-42-35l-11-7c-27-13-50-17-74-14c-21 1-38 8-45 21l-4 16l3 12c7 21 25 43 58 58c17 7 31 14 42 17l113 21z m440 229c25 11 49 14 74 11c24-3 41-14 50-31l5-18l-2-15c-10-25-31-45-67-60c-14-7-29-10-46-13l-174-21l-2 10l-3 4l5 7l143 119l17 7z m-360-134c17 15 40 25 66 25c26 0 50-10 65-25c20-20 29-41 29-67s-9-49-29-66c-18-18-39-28-65-28c-26 0-49 10-66 28c-18 17-28 41-28 66s10 47 28 67z m33-205c2-48 7-98 14-153l0-57l-2-14c-10-25-26-46-52-58c-25-14-52-17-77-10c-29 7-50 24-61 47c-7 14-13 31-13 48l7 32c3 14 10 28 22 40l118 141c14-7 28-14 44-16z m108 19l59-61l37-45l7-14c13-24 20-47 17-74c-3-25-11-43-28-50c-10-7-21-7-33-6c-26 7-48 28-63 62l-17 47l-21 122l24 9l18 10z m64 87l159 14l56 1l14-1c22-7 41-20 53-41c14-15 21-36 21-60l-4-29c-7-28-24-49-48-60c-26-14-51-17-79-7c-17 4-29 11-38 22l-148 123l9 21l5 17z" horiz-adv-x="981" />
<glyph glyph-name="yandex" unicode="&#xe84b;" d="m456 306h-68c-107 0-210 64-210 224c0 167 97 235 196 235h82v-459z m107 544h-185c-181 0-334-113-334-333c0-132 74-230 207-278l-248-368c-8-12 0-21 13-21h115c10 0 16 3 19 9l225 362h81v-362c0-4 5-9 11-9h101c9 0 13 4 13 11v976c0 9-7 13-18 13" horiz-adv-x="580.6" />
<glyph glyph-name="yandex-rect" unicode="&#xe84c;" d="m177 850c-98 0-177-79-177-177l0-646c0-98 79-177 177-177l475 0l348 500l-348 500l-475 0z m266-183l113 0c7 0 11-2 11-8l0-622c0-4-2-7-8-7l-61 0c-4 0-7 3-7 6l0 230l-50 0l-137-230c-2-4-6-6-12-6l-71 0c-7 0-12 6-7 14l151 234c-81 31-127 93-127 177c0 140 94 212 205 212z m-3-54c-60 0-119-43-119-150c0-102 63-142 128-142l42 0l0 292l-51 0z" horiz-adv-x="1000" />
<glyph glyph-name="vkontakte-rect" unicode="&#xe84d;" d="m196 850c-108 0-196-88-196-196l0-608c0-108 88-196 196-196l608 0c108 0 196 88 196 196l0 608c0 108-88 196-196 196l-608 0z m112-226l197 0c41 0 73-1 94-4c21-4 41-10 59-20c20-11 35-25 45-43c10-18 15-39 15-63c0-27-7-51-21-72c-13-22-32-37-56-47l0-3c34-8 62-22 83-45c21-22 31-52 31-90c0-28-5-52-16-73c-10-21-24-39-42-53c-21-16-44-28-70-35c-25-7-56-10-95-10l-224 0l0 558z m140-102l0-118l17 0c24 0 41 0 51 0c9 1 19 3 30 8c11 5 19 13 23 22c4 9 6 20 6 32c0 9-2 19-7 28c-4 10-11 16-21 21c-10 4-20 6-33 6c-13 1-32 1-57 1l-9 0z m0-214l0-140l7 0c37 0 62 0 76 1c14 0 28 4 43 10c13 6 22 14 28 24c6 11 8 23 8 36c0 18-3 31-10 41c-7 10-18 17-32 22c-8 3-20 5-35 6c-14 0-34 0-59 0l-26 0z" horiz-adv-x="1000" />
<glyph glyph-name="odnoklassniki" unicode="&#xe84e;" d="m290 850c-143 0-258-116-258-258c0-142 115-258 258-258c142 0 258 116 258 258c0 142-116 258-258 258z m0-151c59 0 107-48 107-107c0-59-48-107-107-107c-59 0-107 48-107 107c0 59 48 107 107 107z m-213-374c-26 0-51-12-65-35c-23-36-12-82 23-105c47-29 98-50 150-62l-144-144c-30-30-30-77 0-107c15-15 34-22 53-22c20 0 39 7 54 22l142 142l141-142c30-29 78-29 107 0c30 30 30 78 0 107l-144 144c53 12 103 33 150 62c35 23 46 69 24 105c-23 35-69 46-105 23c-105-66-241-66-347 0c-12 8-26 12-39 12z" horiz-adv-x="579" />
<glyph glyph-name="odnoklassniki-rect" unicode="&#xe84f;" d="m141 850c-78 0-141-63-141-141v-718c0-78 63-141 141-141h718c78 0 141 63 141 141v718c0 78-63 141-141 141h-718z m381-102c114 0 206-92 206-206c0-113-92-206-206-206c-113 0-205 93-205 206c0 114 92 206 205 206z m-2-121c-46-1-83-39-83-85c0-47 38-85 85-85c47 0 86 38 86 85c0 47-39 85-86 85c0 0-1 0-2 0z m-168-298c11 0 22-3 32-9c84-53 193-53 277 0c28 18 65 9 83-19c18-28 9-65-19-83c-37-23-77-40-119-50l115-115c23-23 23-61 0-85c-24-23-62-23-85 0l-114 113l-113-113c-11-12-27-18-42-18c-16 0-31 6-43 18c-23 24-23 62 0 85l115 115c-42 10-82 27-119 50c-28 18-37 55-19 83c11 18 30 28 49 28c1 0 1 0 2 0z" horiz-adv-x="1000" />
<glyph glyph-name="friendfeed" unicode="&#xe850;" d="m717 850c-47 0-98-8-150-36c-58 21-120 39-206 32c-193-18-267-116-279-255c-40-5-79-16-82-123c-3-123 36-143 77-156l2-358c6-43-2-90 94-100l144-3c53-7 90 27 109 103c7-62 34-96 85-97l167 0c38 10 80 13 86 82l3 373l44-3c36 5 71 11 96 70l0 112c-7 46-19 40-32 50c34 8 70 11 82 94l-3 91c2 57-30 89-110 111c-36 5-80 13-127 13z m-333-87c23 0 54-4 121-25l2-108c-35 12-65 26-89 23c-76 3-83-35-87-75l0-77l193-2c4 102-23 232 146 254c73 10 141 1 192-21l-2-115c-27 22-62 29-100 34c-104 14-80-79-85-148l139 0l0-102l-139 0l2-460l-153 4l0 456l-200-4l0-452l-153 0l4 452l-75 0l-2 115l81-5l-2 32c3 74-3 202 156 222c20-1 33 1 51 2z" horiz-adv-x="957" />
<glyph glyph-name="friendfeed-rect" unicode="&#xe851;" d="m196 850c-108 0-196-88-196-196l0-608c0-108 88-196 196-196l608 0c107 0 195 88 195 196l0 608c0 108-88 196-195 196l-608 0z m478-138c35 0 66-6 93-10c58-15 82-39 81-81l2-67c-9-60-35-63-60-68c9-7 18-3 23-37l0-81c-18-44-44-48-70-52l-33 2l-2-273c-4-50-34-53-62-60l-123 0c-37 1-57 26-62 71c-14-56-41-80-79-75l-106 2c-70 7-64 42-68 73l-3 262c-29 10-57 25-55 114c2 79 30 87 60 90c8 102 62 174 204 187c62 5 108-8 150-23c38 20 76 26 110 26z m-244-64c-13 0-22-2-37-1c-116-15-112-109-114-163l1-23l-59 3l2-83l54 0l-3-332l113 0l0 332l146 3l0-335l112-3l-2 338l102 0l0 74l-102 0c4 50-13 119 63 108c27-3 53-9 73-24l1 83c-37 16-87 23-141 16c-123-16-103-111-106-186l-142 2l0 56c4 29 9 57 64 55c18 2 40-8 65-17l-1 79c-49 15-72 18-89 18z" horiz-adv-x="999" />
<glyph glyph-name="blogger" unicode="&#xe834;" d="m550 850l-300-1c-128-18-237-97-246-231c-3-13-2-25-2-37c-2-59-1-122-1-182c1-96-2-173 0-244c1-209 124-306 348-302c55 1 119 1 192-1c72 0 128-5 177 2c221 31 264 179 273 299l0 137c-6 140-108 178-194 181c9 35 12 82 3 146c-10 124-98 221-250 233z m-251-187l245 0c135-18 129-164 0-185l-245 0c-135 18-129 164 0 185z m-56-404l450-2c136-17 136-183 5-203l-450 2c-139 17-137 182-5 203z" horiz-adv-x="991" />
<glyph glyph-name="blogger-rect" unicode="&#xe835;" d="m196 850c-108 0-196-88-196-196l0-608c0-108 88-196 196-196l608 0c108 0 196 88 196 196l0 608c0 108-88 196-196 196l-608 0z m338-187c94-8 149-68 155-146c5-40 4-70-2-91c54-2 116-26 120-113l0-86c-5-75-32-168-169-188c-31-4-65-1-110-1c-45 1-85 1-119 0c-139-2-216 59-216 190c-1 44 0 93 0 152c0 38-1 78 0 115c1 7 0 15 1 23c6 84 74 133 153 144l187 1z m-156-117c-80-13-84-105 0-116l152 0c80 13 84 105 0 116l-152 0z m-35-253c-82-13-83-117 3-127l279-1c82 12 82 116-3 127l-279 1z" horiz-adv-x="1000" />
<glyph glyph-name="deviantart" unicode="&#xe836;" d="m360 557l5-340l-206 0c23 98 69 177 203 197l-2 44c-293-38-356-199-360-315l473 1l0 283c143 4 320-2 369-208l-210 2l0 144c-38 11-70 11-106 9l-2-230l469 0c5 230-199 334-520 329l0 84l-113 0z" horiz-adv-x="993" />
<glyph glyph-name="jabber" unicode="&#xe837;" d="m225 850c-4 0-9 0-13-1l0 0c-18-2-37-2-55-5c-35-5-68-16-101-29c-12-5-24-10-35-16c-4-2-11-3-14-7c-2-1-2-5-2-8c-1-6-2-13-2-19c-3-26-4-52-1-77c1-8 4-23 14-24c15-3 27 16 35 27c17 24 37 47 66 58c34 13 73 16 109 18c102 7 212-11 287-86c10-11 20-22 29-34c33-48 51-103 59-161c4-27 7-54 1-81c-11-47-39-88-71-123c-23-23-47-45-73-64c-15-11-31-20-45-32c-15-14-28-31-38-49c-27-50-34-109-26-164c2-11 3-22 6-33c0-4 1-9 3-12c4-5 15-8 21-8c6-1 10 4 12 10c3 10 1 21 0 31c-4 20-7 40-6 61c2 38 17 74 43 101c27 28 63 44 94 68c61 47 116 111 137 187c8 27 10 56 7 84c-5 35-18 71-30 104c-37 102-101 198-202 245c-40 18-82 26-126 32c-20 3-40 5-61 6c-7 0-15 1-22 1z m-53-421c-10-1-20-3-28-8c-13-8-20-22-24-36c-8-28-5-59 1-87c2-9 3-18 6-27c1-3 1-8 3-10c4-5 13-6 18-5c16 2 12 29 12 40c-2 27-9 52-2 79c3 11 9 23 21 28c10 4 20-1 24-11c7-16 5-34 9-51c1-6 3-11 6-17c0-1 1-4 3-4c6 0 13 9 17 12c13 11 26 22 40 30c7 3 18 9 25 3c2-2 4-4 5-5c8-13 0-23-5-36c-7-16-14-31-24-45c-9-13-21-23-28-37c-4-8-7-18-5-27c2-8 8-13 16-11c6 1 10 7 13 11c6 9 12 17 18 26c11 16 25 32 35 49c12 21 18 45 18 69c0 20-8 50-31 55c-4 0-9 0-13-1c-5-1-11-3-16-5c-13-6-24-16-34-26c-6-7-11-15-18-21c0 15-3 30-12 43c-11 16-30 25-50 25z m-115-237c-1 0-2 0-3 0c-20-3-26-19-22-37c4-22 22-40 40-54c46-35 105-54 162-51c22 1 47 5 67 14c11 5 23 23 8 31c-2 1-5 2-7 2c-7 1-14-1-20-3c-11-3-22-6-33-8c-34-6-71 2-98 22c-23 16-41 37-58 59c-10 12-19 26-36 25z m-21-111c-3 0-6 0-8-1c-5 0-11 0-15-3c-9-7 1-20 5-26c14-18 32-32 50-45c50-35 107-56 168-60c18-1 35 0 53 3c6 1 14 2 20 4c17 8 12 39-3 46c-7 4-17-1-24-1c-16-3-32-3-48-3c-42 2-87 15-124 35c-15 8-28 18-40 29c-8 7-16 18-26 21c-2 1-5 1-8 1z m3-95c0 0-1 0-1 0c-7-1-13-4-17-10c-4-3-7-7-8-11c-11-26 17-50 36-62c21-13 43-23 67-31c53-19 115-31 169-14c17 5 33 14 44 26c7 7 12 18 0 22c-8 3-17-4-23-6c-16-7-32-11-48-13c-22-3-42 2-63 7c-18 5-37 9-54 16c-15 5-30 12-43 21c-4 3-8 5-11 9c-11 11-19 25-30 36c-4 5-11 10-18 10z" horiz-adv-x="667" />
<glyph glyph-name="lastfm-1" unicode="&#xe838;" d="m439 134l-37 99s-59-66-148-66c-78 0-134 69-134 178c0 140 70 190 140 190c100 0 132-65 159-148l37-114c36-110 105-199 302-199c141 0 237 43 237 157c0 92-52 140-150 163l-73 16c-51 11-65 32-65 66c0 39 30 62 81 62c54 0 84-21 88-70l114 14c-9 102-79 144-196 144c-102 0-202-38-202-163c0-77 37-126 132-149l77-18c58-14 78-38 78-71c0-42-41-59-119-59c-115 0-163 60-190 144l-38 114c-48 148-124 202-276 202c-167 0-256-106-256-286c0-173 89-266 249-266c128 0 190 60 190 60z" horiz-adv-x="995" />
<glyph glyph-name="lastfm-rect" unicode="&#xe839;" d="m196 850c-108 0-196-88-196-196l0-608c0-108 88-196 196-196l608 0c108 0 196 88 196 196l0 608c0 108-88 196-196 196l-608 0z m89-253c135 0 203-49 246-181l34-102c24-74 67-128 169-128c70 0 106 15 106 53c0 29-17 50-69 63l-69 16c-85 20-118 64-118 133c0 111 89 146 181 146c104 0 167-38 175-129l-102-13c-4 44-30 62-79 62c-45 0-72-20-72-55c0-30 13-48 58-59l65-14c87-20 134-63 134-145c0-102-85-141-212-141c-176 0-237 80-269 178l-33 102c-24 74-53 132-142 132c-62 0-125-44-125-170c0-97 49-158 120-158c79 0 132 59 132 59l32-89s-54-54-169-54c-143 0-222 84-222 238c0 161 79 256 229 256z" horiz-adv-x="1000" />
<glyph glyph-name="linkedin-2" unicode="&#xe83a;" d="m238-150l0 675l-225 0l0-675l225 0z m-113 767c79 0 127 52 127 116c-1 67-48 117-125 117c-77 0-127-50-127-117c0-64 49-116 124-116l1 0z m237-767l224 0l0 377c0 20 1 40 7 55c17 40 53 82 115 82c82 0 114-62 114-153l0-361l224 0l0 387c0 207-110 304-258 304c-121 0-174-68-204-114l2 0l0 98l-224 0c3-64 0-675 0-675z" horiz-adv-x="1046" />
<glyph glyph-name="linkedin-rect" unicode="&#xe83b;" d="m196 850c-108 0-196-88-196-196l0-608c0-108 88-196 196-196l608 0c107 0 196 88 196 196l0 608c0 108-89 196-196 196l-608 0z m49-165c52 0 84-34 85-79c0-43-33-78-86-78l-1 0c-50 0-83 35-83 78c0 45 34 79 85 79z m445-208c100 0 174-65 174-205l0-260l-151 0l0 243c0 61-22 102-76 102c-42 0-67-28-78-55c-4-10-5-23-5-37l0-253l-151 0s2 411 0 454l151 0l0-64c20 31 56 75 136 75z m-521-11l151 0l0-454l-151 0l0 454z" horiz-adv-x="1000" />
<glyph glyph-name="picasa" unicode="&#xe83c;" d="m474 850c-55 0-106-11-157-22l377-343l-5 301c-83 49-152 64-215 64z m-235-56c-262-184-242-367-236-551l416 382l-180 169z m520-55l3-558l142 5c66 262-18 422-145 553z m-569-413l-169-163c66-151 119-195 172-237l-3 400z m88-205l-2-244c362-90 500 58 602 242l-600 2z" horiz-adv-x="927.2" />
<glyph glyph-name="wordpress" unicode="&#xe83d;" d="m502 850c-196 0-380-116-465-300l238 0l0-26c-73 9-67-30-56-70l156-391l115 269l-53 126c-19 34-20 71-98 68l1 24l349-1l0-27c-41-3-90 10-64-74l141-370l77 216c26 91 2 178-28 264c-17 57-9 105 66 124c-114 117-249 168-379 168z m475-342l-227-590c63 54 127 74 205 224c52 124 47 239 22 366z m-964-10c-22-174-20-225 35-367c71-136 126-165 205-218l-240 585z m498-221l-168-404c118-34 223-30 320 8l-152 396z" horiz-adv-x="995" />
<glyph glyph-name="instagram" unicode="&#xe83e;" d="m749 849h-498c-138 0-249-111-249-248v-502c0-137 111-248 249-248h498c138 0 250 111 250 248v502c0 136-112 248-250 248z m157-750c0-86-70-156-157-156h-498c-87 0-157 70-157 156v324h197c-14-30-23-64-23-100c0-130 107-236 237-236c131 0 237 106 237 236c0 36-8 70-23 100h187v-324z m-499 224c0 54 44 98 98 98c54 0 98-44 98-98c0-54-44-98-98-98c-54 0-98 44-98 98z m499 192h-264c-39 28-86 44-137 44c-51 0-98-16-137-44h-274v86c0 86 70 156 157 156h498c87 0 157-70 157-156v-86h0z m-100 186h-85c-15 0-28-12-28-27v-86c0-15 13-27 28-27h85c16 0 28 12 28 27v86c0 15-12 27-28 27z" horiz-adv-x="1000" />
<glyph glyph-name="instagram-filled" unicode="&#xe83f;" d="m604 339c0 54-45 98-99 98c-54 0-98-44-98-98c0-54 44-98 98-98c54 0 99 44 99 98z m146 510h-500c-137 0-249-111-249-248v-69h367c39 27 86 43 137 43c51 0 99-16 137-43h358v69c0 137-112 248-250 248z m101-236c0-15-12-28-28-28h-85c-16 0-28 13-28 28v85c0 16 12 28 28 28h85c16 0 28-12 28-28v-85z m-109-274c0-130-106-236-237-236c-131 0-237 106-237 236c0 36 8 70 23 101h-290v-341c0-137 112-248 249-248h500c138 0 250 111 250 248v341h-280c14-31 22-65 22-101z" horiz-adv-x="1000" />
<glyph glyph-name="diigo" unicode="&#xe840;" d="m251 457c112 2 173 61 230 117l0-673l-112 0c-1 27-2 55-2 82l0 189c0 71 1 142 2 212c-16-4-34-13-54-18c-61-16-141-8-187 19c0-33 1-66 1-100l0-352c0-10 0-21-1-32l-113 0l0 675c58-62 122-121 236-119z m176 196c41 0 73 33 73 74s-32 74-73 74c-40 0-72-33-72-74s32-74 72-74z m-354 0c40 0 72 33 72 74s-32 74-72 74c-40 0-73-33-73-74s33-74 73-74z" horiz-adv-x="500" />
<glyph glyph-name="box-3" unicode="&#xe841;" d="m352 555c-76 0-146-24-204-64l0 285c0 41-33 74-74 74s-74-33-74-74l0-545c-1-10 0-63 3-78c24-171 171-303 349-303c194 0 352 158 352 353c0 194-158 352-352 352z m0-556c-113 0-204 91-204 204s91 203 204 203c112 0 203-91 203-203s-91-204-203-204z" horiz-adv-x="704" />
<glyph glyph-name="box-rect" unicode="&#xe842;" d="m193 850l614 0c107 0 193-86 193-193l0-614c0-107-86-193-193-193l-614 0c-107 0-193 86-193 193l0 614c0 107 86 193 193 193z m307-356c-53 0-102-17-143-46l0 200c0 29-23 52-51 52c-29 0-52-23-52-52l0-382c-1-6 0-43 2-54c17-120 119-212 244-212c136 0 246 111 246 247c0 136-110 247-246 247z m0-389c-79 0-143 63-143 142c0 78 64 142 143 142s142-64 142-142c0-79-64-142-142-142z" horiz-adv-x="1000" />
<glyph glyph-name="tudou" unicode="&#xe843;" d="m499 850c-14 0-28 0-43-1c-227-19-421-193-451-425c-39-296 173-550 440-572c212-17 347 71 440 182c81 97 130 238 108 394c-21 145-125 284-247 355c-69 40-150 67-247 67z m2-96c51 0 103-9 156-29c137-74 246-183 247-371c1-215-151-391-367-409c-235-20-489 174-440 475c31 185 198 335 404 334z m184-246c-66 0-133-42-128-123c61 40 171 47 255 16c-3 72-65 108-127 107z m-375-1c-60 0-120-34-124-106c37 4 77 25 112 19c-14-32-29-63-35-104c-42 44-95-36-42-62c-39-8-25-75 15-70c14 6 23 16 35 24c28-65 104 24 43 50c61 27-12 97-39 62c18 35 19 91 58 100c36 8 71-26 108-35c8 80-62 123-131 122z m-43-238c4 0 9-4 16-15c-30-30-30 14-16 15z" horiz-adv-x="998" />
<glyph glyph-name="youku" unicode="&#xe844;" d="m450 710c-16 0-31-4-44-13c-29-20-45-82-65-126c-21-48-40-97-61-132c-56 64-95 206-163 258c-22 17-70 16-92 0c-58-44 0-122 24-163c52-90 109-186 153-269c-28-75-172-287 20-275c47 30 67 93 92 150c52 116 96 216 150 336c22 50 76 124 64 180c-6 32-42 54-78 54z m466-46c-28 0-56-13-68-38c-20-23-42-45-65-65c-11-14-23-26-37-37c-16-17-29-37-51-48l0 133c-1 72-136 72-136 0l0-378c6-27 18-47 47-51l41 0c28 5 44 22 48 51l0 82c0 28-5 76 13 48c28-28 67-57 102-89c34-31 67-81 102-88c73-16 106 54 79 105c-29 54-111 88-147 136c24 55 154 88 143 184c-4 37-37 56-71 55z" horiz-adv-x="1000" />
<glyph glyph-name="win8" unicode="&#xe845;" d="m986 850l-549-80l0-398l549 0l0 478z m-587-86l-399-58l0-334l399 0l0 392z m-399-430l0-339l399-58l0 397l-399 0z m437 0l0-403l549-81l0 484l-549 0z" horiz-adv-x="986" />
<glyph glyph-name="amex" unicode="&#xe846;" d="m47 664c-26 0-47-21-47-46v-535c0-26 21-47 47-47h907c25 0 46 21 46 47v535c0 25-21 46-46 46h-907z m-10-132h73l10-19v19h85l19-42l18 42h271c13 0 24-2 32-9v9h74v-9c13 7 29 9 47 9h107l10-19v19h80l11-19v19h77v-164h-78l-15 25v-25h-98l-10 27h-24l-11-27h-51c-20 0-35 5-45 10v-10h-121v38c0 5-1 5-4 5h-4l0-43h-234v21l-8-21h-49l-8 20v-20h-94l-11 27h-24l-11-27h-48v86l34 78z m-34-141h31l11 26h58l10-26h57v92l41-92h24l41 92l0-92h29v118h-47l-33-80l-37 80h-46v-112l-47 112h-42l-50-118z m323 118v-118h93v24h-66v24h64v24h-64v21h66v25h-93z m113 0v-118h28v43h30c10 0 16-1 20-5c5-6 5-16 5-23l0-15h28v23c0 11-1 16-5 22c-2 3-7 7-13 10c7 3 19 12 19 31c0 13-5 21-14 26c-9 5-19 6-34 6h-64z m128 0v-118h29v118h-29z m100 0c-20 0-34-5-43-14c-12-13-15-29-15-46c0-21 5-35 15-45c10-10 27-13 41-13h32l11 26h58l11-26h57v88l53-88h39v118h-28v-82l-49 82h-43v-112l-47 112h-42l-40-93h-12c-8 0-15 2-20 6c-5 6-7 15-7 28c0 12 3 22 8 26c5 6 11 7 21 7h27v26h-27z m-594-20l19-47h-37l18 47z m664 0l20-47h-39l19 47z m-270-5h34c5 0 10 0 13-2c4-2 6-5 6-10c0-5-2-9-6-11c-3-3-8-3-13-3h-34v26z m-266-153h150l22-25l23 25h101c11 0 30-2 39-10v10h90c9 0 27-2 38-10v10h136v-10c7 7 21 10 34 10h76v-10c8 6 19 10 35 10h52v-24h-56c-29 0-40-18-40-35c0-37 33-35 59-36c5 0 8-1 10-3c2-1 3-4 3-7c0-4-1-6-3-8c-2-2-6-3-11-3h-54v-25h54c18 0 31 5 38 15v-31c-11-5-26-7-41-7h-73v10c-8-6-23-10-38-10h-228v38c0 4 0 5-5 5h-3v-43h-76v44c-12-5-26-6-39-6h-8v-38l-92 0l-22 25l-24-25h-147v164z m25-24v-118h110l36 39l35-39h54v40h35c24 0 49 7 49 39c0 33-25 39-48 39h-89l-35-39l-35 39h-112z m331 0v-118h28v43h30c10 0 16-1 21-5c5-5 4-16 4-23v-15h28v24c0 10-1 15-5 21c-2 4-7 8-13 10c7 3 20 13 20 31c0 14-6 21-15 26c-9 5-19 6-33 6h-65z m128 0v-118h94v25l-66 0v23h64v24h-64v22h66v24h-94z m147 0c-29 0-40-18-40-35c0-37 33-35 59-36c5 0 8-1 10-3c2-2 3-4 3-8c0-3-1-6-3-7c-2-3-6-3-12-3h-54v-26h55c28 0 44 12 44 38c0 12-3 19-9 24c-6 7-17 10-32 10l-15 0c-4 0-8 1-11 2c-3 1-6 4-6 8c0 4 1 7 5 9c2 2 6 2 11 2h51v25h-56z m-399-13v-94l-43 48l43 46z m-180-11h71l30-35l-32-34h-69v23h62v24h-62v22z m208 0h36c10 0 17-4 17-15c0-10-6-16-17-16h-36v31z m125 0h34c5 0 10 0 14-2c3-2 5-6 5-11c0-5-2-9-5-11c-4-2-9-2-14-2h-34v26z m360-1h51v-34c-1 1-2 2-3 3c-6 7-16 9-32 10l-15 0c-4 0-8 0-10 1c-4 2-7 5-7 9c0 4 2 7 5 9c2 2 6 2 11 2z" horiz-adv-x="1000" />
<glyph glyph-name="discover" unicode="&#xe847;" d="m46 664c-26 0-47-21-47-46v-535c0-26 21-47 47-47h907c26 0 46 21 46 47v535c0 25-20 46-46 46h-907z m480-177c1 0 1 0 2 0c44 0 79-35 79-79c0-43-35-79-79-79c-44 0-79 36-79 79c0 43 34 78 77 79z m-250-3c16 0 30-6 42-16l-14-19c-7 8-14 11-23 11c-12 0-20-6-20-15c0-8 4-12 21-18c32-12 41-22 41-45c0-28-20-47-49-47c-21 0-37 8-50 27l18 18c7-13 18-20 31-20c12 0 22 9 22 21c0 6-3 11-9 14c-3 2-8 5-19 9c-26 9-35 19-35 39c0 23 19 41 44 41z m132 0c12 0 22-3 34-9v-33c-12 12-22 16-35 16c-26 0-47-21-47-49c0-28 20-49 48-49c13 0 23 5 34 16v-33c-13-6-23-8-35-8c-43 0-76 32-76 74c0 42 34 75 77 75z m-353-3h41c46 0 77-29 77-71c0-20-9-41-26-54c-14-11-29-16-51-16h-41v141z m131 0h27v-141h-27v141z m409 0h31l38-96l38 96h31l-62-146h-15l-61 146z m149 0h79v-24h-51v-31h49v-24h-49v-38h51v-24h-79v141z m99 0h42c32 0 50-15 50-41c0-22-11-36-32-41l45-59h-35l-38 57h-4v-57h-28v141z m28-22v-43h8c18 0 27 8 27 22c0 14-9 21-26 21h-9z m-788-1v-95h7c19 0 30 4 39 12c10 8 15 22 15 36c0 13-5 27-15 35c-9 8-20 12-39 12h-7z m904-135s1-152 0-232c0-7-3-18-11-27c-8-10-20-14-27-14c-8 0-725 0-725 0c492 85 763 273 763 273z" horiz-adv-x="1000" />
<glyph glyph-name="visa" unicode="&#xe848;" d="m40 664c-22 0-40-18-40-40v-548c0-22 18-40 40-40h920c22 0 40 18 40 40v548c0 22-18 40-40 40h-920z m557-187c25 0 44-5 57-10l-9-54l-6 3c-11 5-26 10-47 9c-24 0-35-11-35-21c-1-11 13-19 35-30c36-18 53-39 52-67c0-52-43-85-109-85c-28 1-55 6-70 13l9 56l8-4c21-10 34-13 59-13c18 0 38 7 38 24c0 11-8 18-33 30c-24 12-55 32-55 67c1 48 44 82 106 82z m-509-8h102c13 0 24-5 28-20l22-112c0 0 0 0 0 0l7-34l61 166h67l-99-243l-67 0l-53 196c32-17 59-36 74-63c-4 9-9 18-16 28c-8 11-25 25-32 31c-24 20-58 37-94 46l0 5z m313 0h65l-40-243h-65l40 243z m368 0h49l52-243h-59s-6 28-8 36c-9 0-74 0-82 0c-2-6-13-36-13-36h-67l95 223c6 15 18 20 33 20z m5-66c-3-9-9-23-9-23c0 0-20-53-25-67l53 0c-3 12-15 70-15 70l-4 20z" horiz-adv-x="1000" />
<glyph glyph-name="uniE800" unicode="&#xe865;" d="m787 77q34-34 7-61l-47-47q-14-14-33-14t-34 14l-190 190q-72-42-156-42q-128 0-223 96t-96 223t91 219t218 90t224-95t95-224q0-84-45-160z m-677 359q0-88 68-156t156-68t151 63t63 151t-68 156t-156 68t-151-63t-63-151z" horiz-adv-x="820" />
</font>
</defs>
</svg>
